<?xml version="1.0" standalone="no"?><svg xmlns="http://www.w3.org/2000/svg" viewBox="0 0 1440 320"><path fill="#B0B0B0" fill-opacity="1" d="M0,160L34.3,165.3C68.6,171,137,181,206,154.7C274.3,128,343,64,411,42.7C480,21,549,43,617,80C685.7,117,754,171,823,197.3C891.4,224,960,224,1029,192C1097.1,160,1166,96,1234,74.7C1302.9,53,1371,75,1406,85.3L1440,96L1440,320L1405.7,320C1371.4,320,1303,320,1234,320C1165.7,320,1097,320,1029,320C960,320,891,320,823,320C754.3,320,686,320,617,320C548.6,320,480,320,411,320C342.9,320,274,320,206,320C137.1,320,69,320,34,320L0,320Z"></path></svg>